<svg width="461.489990234375px" height="194.78120117187498px" xmlns="http://www.w3.org/2000/svg" viewBox="19.2550048828125 -22.39060058593749 461.489990234375 194.78120117187498" style="background-color: rgba(0, 0, 0, 0); background-position: initial initial; background-repeat: initial initial;" preserveAspectRatio="xMidYMid"><defs><filter id="editing-extrusion" x="-100%" y="-100%" width="300%" height="300%"><feFlood result="color1" flood-color="#444"></feFlood><feConvolveMatrix order="8,8" divisor="1" kernelMatrix="1 0 0 0 0 0 0 0 0 1 0 0 0 0 0 0 0 0 1 0 0 0 0 0 0 0 0 1 0 0 0 0 0 0 0 0 1 0 0 0 0 0 0 0 0 1 0 0 0 0 0 0 0 0 1 0 0 0 0 0 0 0 0 1" in="SourceAlpha" result="extrude"></feConvolveMatrix><feComposite in="color1" in2="extrude" result="comp-extrude" operator="in"></feComposite><feOffset dx="4" dy="4" in="comp-extrude" result="offset-extrude"></feOffset><feMerge><feMergeNode in="offset-extrude"></feMergeNode><feMergeNode in="SourceGraphic"></feMergeNode></feMerge></filter></defs><g filter="url(#editing-extrusion)"><g transform="translate(86.58998900651932, 113.47468566894531)"><path d="M78.90-59.33L78.90-59.33L78.90-59.33Q78.07-60.67 76.01-60.67L76.01-60.67L76.01-60.67Q73.95-60.67 72.15-60.15L72.15-60.15L72.15-60.15Q70.35-59.64 67.88-58.71L67.88-58.71L67.88-58.71Q63.86-57.06 61.39-55.62L61.39-55.62L61.39-55.62Q52.12-50.68 44.08-44.03L44.08-44.03L44.08-44.03Q36.05-37.39 35.64-34.09L35.64-34.09L35.64-34.09Q35.43-31.52 38.42-29.87L38.42-29.87L38.42-29.87Q40.99-28.33 44.39-26.93L44.39-26.93L44.39-26.93Q47.79-25.54 49.34-24.82L49.34-24.82L49.34-24.82Q57.58-20.70 57.58-13.91L57.58-13.91L57.58-13.91Q57.58-10.92 55.83-8.14L55.83-8.14L55.83-8.14Q53.05-3.81 47.43-0.98L47.43-0.98L47.43-0.98Q41.82 1.85 35.43 2.99L35.43 2.99L35.43 2.99Q28.84 4.12 24.51 4.12L24.51 4.12L24.51 4.12Q16.69 4.12 8.86 0.77L8.86 0.77L8.86 0.77Q1.03-2.58-0.82-9.68L-0.82-9.68L-0.82-9.68Q2.99-6.28 9.68-4.84L9.68-4.84L9.68-4.84Q16.38-3.40 22.45-3.40L22.45-3.40L22.45-3.40Q31.52-3.50 35.90-4.84L35.90-4.84L35.90-4.84Q40.27-6.18 43.52-7.98L43.52-7.98L43.52-7.98Q46.76-9.79 49.49-12.21L49.49-12.21L49.49-12.21Q52.22-14.63 52.22-17.56L52.22-17.56L52.22-17.56Q52.22-20.50 48.31-22.87L48.31-22.87L48.31-22.87Q48.00-23.07 42.08-25.44L42.08-25.44L42.08-25.44Q36.15-27.81 33.01-30.69L33.01-30.69L33.01-30.69Q29.87-33.58 29.87-37.29L29.87-37.29L29.87-37.29Q29.87-44.29 38.52-51.55L38.52-51.55L38.52-51.55Q47.17-58.81 57.42-62.83L57.42-62.83L57.42-62.83Q67.67-66.85 74.88-66.85L74.88-66.85L74.88-66.85Q79.93-66.85 82.71-65.04L82.71-65.04L82.71-65.04Q85.49-63.24 85.49-60.05L85.49-60.05L85.49-60.05Q85.49-59.64 85.49-59.12L85.49-59.12L85.49-59.12Q85.18-55.93 74.26-45.84L74.26-45.84L74.26-45.84Q70.25-42.13 67.21-37.54L67.21-37.54L67.21-37.54Q64.17-32.96 64.17-29.46L64.17-29.46L64.17-29.46Q64.17-29.15 64.17-28.84L64.17-28.84L64.17-28.84Q60.98-31.31 60.98-35.43L60.98-35.43L60.98-35.43Q60.98-39.14 64.17-44.50L64.17-44.50L64.17-44.50Q68.80-52.32 78.90-59.33ZM84.77-16.07L84.77-16.07L84.77-16.07Q90.23-19.06 90.23-22.15L90.23-22.15L90.23-22.15Q90.23-25.24 86.52-25.24L86.52-25.24L86.52-25.24Q84.77-25.24 82.81-24.31L82.81-24.31L82.81-24.31Q78.49-22.35 74.47-17.51L74.47-17.51L74.47-17.51Q69.53-11.54 69.53-6.39L69.53-6.39L69.53-6.39Q69.53-4.43 70.61-2.73L70.61-2.73L70.61-2.73Q71.69-1.03 74.47-1.03L74.47-1.03L74.47-1.03Q79.31-1.03 86.73-6.13L86.73-6.13L86.73-6.13Q94.14-11.23 99.50-16.38L99.50-16.38L99.50-16.38Q100.73-17.61 100.73-16.48L100.73-16.48L100.73-16.48Q100.73-15.76 100.12-15.24L100.12-15.24L100.12-15.24Q96.31-11.74 95.02-10.56L95.02-10.56L95.02-10.56Q93.73-9.37 89.92-6.33L89.92-6.33L89.92-6.33Q86.11-3.30 83.74-2.06L83.74-2.06L83.74-2.06Q76.43 1.75 71.33 1.75L71.33 1.75L71.33 1.75Q66.23 1.75 63.29-0.57L63.29-0.57L63.29-0.57Q60.36-2.88 60.36-7.00L60.36-7.00L60.36-7.00Q60.36-15.76 68.19-22.09L68.19-22.09L68.19-22.09Q76.01-28.43 84.56-28.43L84.56-28.43L84.56-28.43Q90.33-28.43 92.29-25.96L92.29-25.96L92.29-25.96Q93.11-24.72 93.11-23.33L93.11-23.33L93.11-23.33Q93.11-21.94 92.19-20.29L92.19-20.29L92.19-20.29Q90.33-17.10 85.23-14.68L85.23-14.68L85.23-14.68Q80.13-12.26 75.60-12.26L75.60-12.26L75.60-12.26Q73.85-12.26 73.70-12.57L73.70-12.57L73.70-12.57Q73.54-12.88 73.95-13.03L73.95-13.03L73.95-13.03Q74.37-13.18 75.09-13.18L75.09-13.18L75.09-13.18Q79.21-13.18 84.77-16.07ZM124.32-20.60L124.32-20.60L124.32-20.60Q119.79-15.35 116.96-10.97L116.96-10.97L116.96-10.97Q114.12-6.59 114.12-4.79L114.12-4.79L114.12-4.79Q114.12-2.99 116.24-2.99L116.24-2.99L116.24-2.99Q118.35-2.99 124.89-7.21L124.89-7.21L124.89-7.21Q131.43-11.43 136.99-16.69L136.99-16.69L136.99-16.69Q137.50-17.20 137.92-17.10L137.92-17.10L137.92-17.10Q138.33-17.00 138.33-16.58L138.33-16.58L138.33-16.58Q138.33-16.17 137.92-15.66L137.92-15.66L137.92-15.66Q124.63-3.50 117.63-0.41L117.63-0.41L117.63-0.41Q114.54 0.82 113.20 0.82L113.20 0.82L113.20 0.82Q108.25 0.82 106.45-0.82L106.45-0.82L106.45-0.82Q104.65-2.47 104.65-4.43L104.65-4.43L104.65-4.43Q104.65-8.34 106.19-10.40L106.19-10.40L106.19-10.40Q111.24-17.51 114.23-22.45L114.23-22.45L114.23-22.45Q115.15-23.90 113.87-24.46L113.87-24.46L113.87-24.46Q112.58-25.03 110.67-25.03L110.67-25.03L110.67-25.03Q108.77-25.03 108.67-25.13L108.67-25.13L108.67-25.13Q101.76-15.86 94.97-10.51L94.97-10.51L94.97-10.51Q94.14-9.79 94.04-10.51L94.04-10.51L94.04-10.51Q94.04-11.33 95.17-12.46L95.17-12.46L95.17-12.46Q102.38-18.64 107.02-25.54L107.02-25.54L107.02-25.54Q106.09-26.16 106.09-27.24L106.09-27.24L106.09-27.24Q106.09-28.33 106.24-29.87L106.24-29.87L106.24-29.87Q106.40-31.42 107.84-33.99L107.84-33.99L107.84-33.99Q110.31-38.32 112.99-38.32L112.99-38.32L112.99-38.32Q115.26-38.32 115.26-35.84L115.26-35.84L115.26-35.84Q115.26-32.45 112.06-28.43L112.06-28.43L112.06-28.43Q110.52-26.57 109.18-25.75L109.18-25.75L109.18-25.75Q112.99-26.99 120.30-26.99L120.30-26.99L120.30-26.99Q123.91-26.99 125.45-24.31L125.45-24.31L125.45-24.31Q125.66-23.90 125.66-23.07L125.66-23.07L125.66-23.07Q125.66-22.25 124.32-20.60ZM170.98-15.86L170.98-15.86L170.98-15.86Q169.85-14.52 168.66-12.98L168.66-12.98L168.66-12.98Q167.48-11.43 165.68-8.76L165.68-8.76L165.68-8.76Q163.87-6.08 163.87-4.22L163.87-4.22L163.87-4.22Q163.87-2.37 165.47-2.37L165.47-2.37L165.47-2.37Q167.07-2.37 170.67-4.33L170.67-4.33L170.67-4.33Q177.88-8.45 186.64-16.69L186.64-16.69L186.64-16.69Q187.67-17.72 187.98-17.00L187.98-17.00L187.98-17.00Q187.98-16.89 187.98-16.58L187.98-16.58L187.98-16.58Q187.98-16.27 187.56-15.86L187.56-15.86L187.56-15.86Q169.85 0.82 161.81 0.82L161.81 0.82L161.81 0.82Q159.44 0.82 157.85-0.77L157.85-0.77L157.85-0.77Q156.25-2.37 156.25-4.53L156.25-4.53L156.25-4.53Q156.25-6.70 158.11-11.12L158.11-11.12L158.11-11.12Q153.47-5.36 148.17-2.21L148.17-2.21L148.17-2.21Q142.86 0.93 139.87 0.93L139.87 0.93L139.87 0.93Q136.89 0.93 134.78-0.88L134.78-0.88L134.78-0.88Q132.66-2.68 132.66-5.36L132.66-5.36L132.66-5.36Q132.66-12.98 139.46-20.29L139.46-20.29L139.46-20.29Q144.61-25.75 152.23-28.02L152.23-28.02L152.23-28.02Q155.63-29.15 158.88-29.15L158.88-29.15L158.88-29.15Q162.12-29.15 165.16-27.35L165.16-27.35L165.16-27.35Q168.20-25.54 169.02-23.07L169.02-23.07L169.02-23.07Q172.11-23.07 173.45-20.81L173.45-20.81L173.45-20.81Q173.66-20.50 173.66-19.78L173.66-19.78L173.66-19.78Q173.66-19.06 172.89-18.13L172.89-18.13L172.89-18.13Q172.11-17.20 170.98-15.86ZM163.46-26.06L163.46-26.06L163.46-26.06Q161.30-26.06 158.31-24.72L158.31-24.72L158.31-24.72Q153.06-22.45 148.32-16.89L148.32-16.89L148.32-16.89Q140.80-8.03 140.80-3.91L140.80-3.91L140.80-3.91Q140.80-1.75 142.55-1.75L142.55-1.75L142.55-1.75Q143.99-1.75 147.34-3.61L147.34-3.61L147.34-3.61Q150.69-5.46 156.15-10.92L156.15-10.92L156.15-10.92Q156.46-11.23 158.52-13.18L158.52-13.18L158.52-13.18Q160.58-15.14 162.02-16.58L162.02-16.58L162.02-16.58Q166.86-21.63 166.86-23.84L166.86-23.84L166.86-23.84Q166.86-26.06 163.46-26.06ZM231.13-42.23L231.13-42.23L231.13-42.23Q231.13-41.82 230.77-41.82L230.77-41.82L230.77-41.82Q230.41-41.82 230.31-42.33L230.31-42.33L230.31-42.33Q229.69-44.70 227.94-45.99L227.94-45.99L227.94-45.99Q226.19-47.28 224.90-47.33L224.90-47.33L224.90-47.33Q223.61-47.38 222.58-47.38L222.58-47.38L222.58-47.38Q218.88-47.38 215.68-45.32L215.68-45.32L215.68-45.32Q209.60-41.41 201.57-30.49L201.57-30.49L201.57-30.49Q207.24-29.97 209.19-28.43L209.19-28.43L209.19-28.43Q213.00-25.54 212.28-24.21L212.28-24.21L212.28-24.21Q212.08-23.69 210.43-24.67L210.43-24.67L210.43-24.67Q208.78-25.65 205.38-25.65L205.38-25.65L205.38-25.65Q201.98-25.65 197.45-24.41L197.45-24.41L197.45-24.41Q190.34-14.01 186.94-3.09L186.94-3.09L186.94-3.09Q185.50 1.65 185.50 4.74L185.50 4.74L185.50 4.74Q185.50 7.83 186.84 9.37L186.84 9.37L186.84 9.37Q187.25 9.79 186.94 9.89L186.94 9.89L186.94 9.89Q186.64 9.99 186.53 9.99L186.53 9.99L186.53 9.99Q186.43 9.99 186.33 9.89L186.33 9.89L186.33 9.89Q182.52 6.80 182.52 0.10L182.52 0.10L182.52 0.10Q182.52-6.59 188.80-21.12L188.80-21.12L188.80-21.12Q188.28-20.91 188.03-21.12L188.03-21.12L188.03-21.12Q187.77-21.32 187.41-22.04L187.41-22.04L187.41-22.04Q187.05-22.76 186.84-23.84L186.84-23.84L186.84-23.84Q186.64-24.93 186.89-26.01L186.89-26.01L186.89-26.01Q187.15-27.09 188.39-28.22L188.39-28.22L188.39-28.22Q189.83-29.46 193.23-30.18L193.23-30.18L193.23-30.18Q200.85-44.29 207.96-49.13L207.96-49.13L207.96-49.13Q212.69-52.32 217.74-52.32L217.74-52.32L217.74-52.32Q222.79-52.32 226.39-49.85L226.39-49.85L226.39-49.85Q231.13-46.56 231.13-42.23ZM232.68-16.07L232.68-16.07L232.68-16.07Q238.14-19.06 238.14-22.15L238.14-22.15L238.14-22.15Q238.14-25.24 234.43-25.24L234.43-25.24L234.43-25.24Q232.68-25.24 230.72-24.31L230.72-24.31L230.72-24.31Q226.39-22.35 222.38-17.51L222.38-17.51L222.38-17.51Q217.43-11.54 217.43-6.39L217.43-6.39L217.43-6.39Q217.43-4.43 218.51-2.73L218.51-2.73L218.51-2.73Q219.60-1.03 222.38-1.03L222.38-1.03L222.38-1.03Q227.22-1.03 234.63-6.13L234.63-6.13L234.63-6.13Q242.05-11.23 247.41-16.38L247.41-16.38L247.41-16.38Q248.64-17.61 248.64-16.48L248.64-16.48L248.64-16.48Q248.64-15.76 248.02-15.24L248.02-15.24L248.02-15.24Q244.21-11.74 242.93-10.56L242.93-10.56L242.93-10.56Q241.64-9.37 237.83-6.33L237.83-6.33L237.83-6.33Q234.02-3.30 231.65-2.06L231.65-2.06L231.65-2.06Q224.33 1.75 219.24 1.75L219.24 1.75L219.24 1.75Q214.14 1.75 211.20-0.57L211.20-0.57L211.20-0.57Q208.27-2.88 208.27-7.00L208.27-7.00L208.27-7.00Q208.27-15.76 216.09-22.09L216.09-22.09L216.09-22.09Q223.92-28.43 232.47-28.43L232.47-28.43L232.47-28.43Q238.24-28.43 240.20-25.96L240.20-25.96L240.20-25.96Q241.02-24.72 241.02-23.33L241.02-23.33L241.02-23.33Q241.02-21.94 240.09-20.29L240.09-20.29L240.09-20.29Q238.24-17.10 233.14-14.68L233.14-14.68L233.14-14.68Q228.04-12.26 223.51-12.26L223.51-12.26L223.51-12.26Q221.76-12.26 221.60-12.57L221.60-12.57L221.60-12.57Q221.45-12.88 221.86-13.03L221.86-13.03L221.86-13.03Q222.27-13.18 223.00-13.18L223.00-13.18L223.00-13.18Q227.12-13.18 232.68-16.07ZM264.71-31.42L264.71-31.42L264.71-31.42Q263.58-32.34 263.78-34.09L263.78-34.09L263.78-34.09Q263.99-35.84 265.64-37.80L265.64-37.80L265.64-37.80Q267.28-39.76 270.07-39.76L270.07-39.76L270.07-39.76Q270.89-39.76 271.82-38.99L271.82-38.99L271.82-38.99Q272.74-38.21 272.54-36.41L272.54-36.41L272.54-36.41Q272.33-34.61 270.89-33.01L270.89-33.01L270.89-33.01Q269.45-31.42 267.65-30.95L267.65-30.95L267.65-30.95Q265.84-30.49 264.71-31.42ZM263.37-25.96L263.37-25.96L263.37-25.96Q259.15-21.63 256.32-14.99L256.32-14.99L256.32-14.99Q253.48-8.34 253.48-5.67L253.48-5.67L253.48-5.67Q253.48-2.99 255.59-2.99L255.59-2.99L255.59-2.99Q257.71-2.99 262.60-6.08L262.60-6.08L262.60-6.08Q267.49-9.17 273.77-14.83L273.77-14.83L273.77-14.83Q275.11-16.07 275.11-14.52L275.11-14.52L275.11-14.52Q275.11-14.32 274.91-14.11L274.91-14.11L274.91-14.11Q269.96-9.79 266.56-7.00L266.56-7.00L266.56-7.00Q263.17-4.22 258.48-1.70L258.48-1.70L258.48-1.70Q253.79 0.82 250.81 0.82L250.81 0.82L250.81 0.82Q247.10 0.82 245.29-0.82L245.29-0.82L245.29-0.82Q243.49-2.47 243.49-4.43L243.49-4.43L243.49-4.43Q243.49-8.14 244.83-10.30L244.83-10.30L244.83-10.30Q246.17-12.46 249.36-16.27L249.36-16.27L249.36-16.27Q248.23-15.35 245.81-13.18L245.81-13.18L245.81-13.18Q243.39-11.02 242.46-10.30L242.46-10.30L242.46-10.30Q241.53-9.58 241.53-10.71L241.53-10.71L241.53-10.71Q241.53-11.43 243.18-12.77L243.18-12.77L243.18-12.77Q244.83-14.11 250.34-19.57L250.34-19.57L250.34-19.57Q255.85-25.03 257.86-26.06L257.86-26.06L257.86-26.06Q259.87-27.09 261.16-27.09L261.16-27.09L261.16-27.09Q262.44-27.09 263.06-26.73L263.06-26.73L263.06-26.73Q263.68-26.37 263.37-25.96ZM319.92-22.97L319.92-22.97L319.92-22.97Q319.92-19.16 313.43-10.40L313.43-10.40L313.43-10.40Q309.52-5.15 309.52-3.91L309.52-3.91L309.52-3.91Q309.52-2.68 310.80-2.68L310.80-2.68L310.80-2.68Q312.09-2.68 314.46-4.22L314.46-4.22L314.46-4.22Q320.33-8.24 326.20-13.91L326.20-13.91L326.20-13.91Q327.03-14.73 327.33-14.32L327.33-14.32L327.33-14.32Q327.64-13.91 327.64-13.70L327.64-13.70L327.64-13.70Q327.64-13.49 325.38-11.33L325.38-11.33L325.38-11.33Q323.11-9.17 320.38-6.80L320.38-6.80L320.38-6.80Q317.65-4.43 313.53-1.91L313.53-1.91L313.53-1.91Q309.41 0.62 306.73 0.62L306.73 0.62L306.73 0.62Q301.17 0.62 301.17-4.33L301.17-4.33L301.17-4.33Q301.17-6.08 301.79-8.45L301.79-8.45L301.79-8.45Q303.13-12.46 313.43-24.00L313.43-24.00L313.43-24.00Q314.77-25.44 314.77-26.27L314.77-26.27L314.77-26.27Q314.77-27.09 312.71-27.09L312.71-27.09L312.71-27.09Q310.65-27.09 306.22-23.48L306.22-23.48L306.22-23.48Q304.67-22.25 302.41-19.83L302.41-19.83L302.41-19.83Q300.14-17.41 297.10-12.05L297.10-12.05L297.10-12.05Q294.06-6.70 292.62-2.58L292.62-2.58L292.62-2.58Q292.00-0.72 290.15-0.72L290.15-0.72L290.15-0.72Q289.74-0.72 289.12-0.82L289.12-0.82L289.12-0.82Q287.16-1.34 287.58-2.68L287.58-2.68L287.58-2.68Q295.61-17.00 297.16-20.60L297.16-20.60L297.16-20.60Q298.70-24.21 298.70-25.75L298.70-25.75L298.70-25.75Q298.70-27.30 297.46-27.30L297.46-27.30L297.46-27.30Q292.00-27.30 281.81-9.48L281.81-9.48L281.81-9.48Q278.10-3.71 275.83-1.24L275.83-1.24L275.83-1.24Q273.57 1.24 271.71 1.24L271.71 1.24L271.71 1.24Q271.51 1.24 271.30 1.24L271.30 1.24L271.30 1.24Q268.62 1.24 266.05-0.93L266.05-0.93L266.05-0.93Q266.67-1.85 269.04-4.94L269.04-4.94L269.04-4.94Q274.29-11.33 278.20-17.30L278.20-17.30L278.20-17.30Q273.77-12.88 270.68-10.40L270.68-10.40L270.68-10.40Q269.65-9.58 269.50-10.30L269.50-10.30L269.50-10.30Q269.35-11.02 269.96-11.59L269.96-11.59L269.96-11.59Q270.58-12.15 272.02-13.44L272.02-13.44L272.02-13.44Q273.47-14.73 273.93-15.14L273.93-15.14L273.93-15.14Q274.39-15.55 275.68-16.74L275.68-16.74L275.68-16.74Q276.97-17.92 277.59-18.64L277.59-18.64L277.59-18.64Q280.47-22.04 281.81-24.41L281.81-24.41L281.81-24.41Q282.32-25.65 282.27-26.83L282.27-26.83L282.27-26.83Q282.22-28.02 281.76-28.38L281.76-28.38L281.76-28.38Q281.29-28.74 281.40-29.25L281.40-29.25L281.40-29.25Q281.40-30.08 282.22-30.08L282.22-30.08L282.22-30.08Q282.63-30.08 283.15-29.87L283.15-29.87L283.15-29.87Q286.34-28.43 286.34-23.59L286.34-23.59L286.34-23.59Q286.34-20.70 285.21-17.30L285.21-17.30L285.21-17.30Q287.27-20.50 289.64-23.59L289.64-23.59L289.64-23.59Q293.86-29.05 298.08-29.05L298.08-29.05L298.08-29.05Q300.97-29.05 300.97-25.75L300.97-25.75L300.97-25.75Q300.97-22.66 296.64-14.73L296.64-14.73L296.64-14.73Q300.97-20.29 303.34-22.87L303.34-22.87L303.34-22.87Q308.79-28.53 313.84-28.53L313.84-28.53L313.84-28.53Q319.20-28.53 319.92-23.90L319.92-23.90L319.92-23.90Q319.92-23.38 319.92-22.97Z" fill="#ccc"></path></g></g><style>text {
  font-size: 64px;
  font-family: Arial Black;
  dominant-baseline: central;
  text-anchor: middle;
}</style></svg>