<svg width="619.9724975585938px" height="219.02744140625px" xmlns="http://www.w3.org/2000/svg" viewBox="-59.986248779296886 -34.513720703125 619.9724975585938 219.02744140625" style="background-image: none; background-position: initial initial; background-repeat: initial initial;" preserveAspectRatio="xMidYMid"><defs><filter id="editing-extrusion" x="-100%" y="-100%" width="300%" height="300%"><feFlood result="color1" flood-color="#d88c51"></feFlood><feConvolveMatrix order="4,4" divisor="1" kernelMatrix="1 0 0 0 0 1 0 0 0 0 1 0 0 0 0 1" in="SourceAlpha" result="extrude"></feConvolveMatrix><feComposite in="color1" in2="extrude" result="comp-extrude" operator="in"></feComposite><feOffset dx="2" dy="2" in="comp-extrude" result="offset-extrude"></feOffset><feMerge><feMergeNode in="offset-extrude"></feMergeNode><feMergeNode in="SourceGraphic"></feMergeNode></feMerge></filter></defs><g filter="url(#editing-extrusion)"><g transform="translate(29.98500919342041, 133.24312591552734)"><path d="M25.12 8.35L25.12 8.35L25.12 8.35Q27.43 8.35 29.67 7.52L29.67 7.52L29.67 7.52Q31.92 6.68 33.68 4.75L33.68 4.75L33.68 4.75Q35.43 2.82 36.53-0.29L36.53-0.29L36.53-0.29Q37.62-3.40 37.62-7.89L37.62-7.89L37.62-7.89Q37.62-12.73 35.23-17.29L35.23-17.29L35.23-17.29Q32.84-21.84 29.24-26.24L29.24-26.24L29.24-26.24Q25.64-30.65 21.46-35.00L21.46-35.00L21.46-35.00Q17.29-39.35 13.68-43.88L13.68-43.88L13.68-43.88Q10.08-48.40 7.69-53.21L7.69-53.21L7.69-53.21Q5.30-58.02 5.30-63.26L5.30-63.26L5.30-63.26Q5.30-68.51 7.23-72.74L7.23-72.74L7.23-72.74Q9.16-76.98 12.47-79.94L12.47-79.94L12.47-79.94Q15.79-82.91 20.19-84.52L20.19-84.52L20.19-84.52Q24.60-86.14 29.62-86.14L29.62-86.14L29.62-86.14Q34.97-86.14 39.15-85.01L39.15-85.01L39.15-85.01Q43.33-83.89 46.24-81.96L46.24-81.96L46.24-81.96Q49.15-80.03 50.65-77.41L50.65-77.41L50.65-77.41Q52.14-74.79 52.14-71.85L52.14-71.85L52.14-71.85Q52.14-70.47 51.74-69.00L51.74-69.00L51.74-69.00Q51.34-67.53 50.47-66.32L50.47-66.32L50.47-66.32Q49.61-65.11 48.28-64.30L48.28-64.30L48.28-64.30Q46.96-63.49 45.17-63.49L45.17-63.49L45.17-63.49Q43.04-63.49 42.03-64.79L42.03-64.79L42.03-64.79Q41.02-66.09 40.53-67.99L40.53-67.99L40.53-67.99Q40.04-69.89 39.70-72.17L39.70-72.17L39.70-72.17Q39.35-74.44 38.60-76.34L38.60-76.34L38.60-76.34Q37.85-78.24 36.36-79.54L36.36-79.54L36.36-79.54Q34.86-80.84 31.98-80.84L31.98-80.84L31.98-80.84Q30.42-80.84 28.90-80.15L28.90-80.15L28.90-80.15Q27.37-79.45 26.13-78.04L26.13-78.04L26.13-78.04Q24.89-76.63 24.14-74.44L24.14-74.44L24.14-74.44Q23.39-72.25 23.39-69.26L23.39-69.26L23.39-69.26Q23.39-65.80 24.83-62.51L24.83-62.51L24.83-62.51Q26.27-59.23 28.64-56.03L28.64-56.03L28.64-56.03Q31.00-52.83 34.02-49.64L34.02-49.64L34.02-49.64Q37.05-46.44 40.19-43.18L40.19-43.18L40.19-43.18Q43.33-39.93 46.35-36.50L46.35-36.50L46.35-36.50Q49.38-33.07 51.74-29.38L51.74-29.38L51.74-29.38Q54.10-25.70 55.54-21.66L55.54-21.66L55.54-21.66Q56.98-17.63 56.98-13.19L56.98-13.19L56.98-13.19Q56.98-6.68 54.48-1.58L54.48-1.58L54.48-1.58Q51.97 3.51 47.68 7.00L47.68 7.00L47.68 7.00Q43.39 10.49 37.62 12.33L37.62 12.33L37.62 12.33Q31.86 14.17 25.35 14.17L25.35 14.17L25.35 14.17Q19.47 14.17 14.95 12.70L14.95 12.70L14.95 12.70Q10.43 11.24 7.32 8.82L7.32 8.82L7.32 8.82Q4.21 6.40 2.62 3.31L2.62 3.31L2.62 3.31Q1.04 0.23 1.04-3.05L1.04-3.05L1.04-3.05Q1.04-4.44 1.47-6.02L1.47-6.02L1.47-6.02Q1.90-7.61 2.74-8.93L2.74-8.93L2.74-8.93Q3.57-10.26 4.84-11.15L4.84-11.15L4.84-11.15Q6.11-12.04 7.78-12.04L7.78-12.04L7.78-12.04Q9.51-12.04 10.57-11.18L10.57-11.18L10.57-11.18Q11.64-10.31 12.27-8.87L12.27-8.87L12.27-8.87Q12.91-7.43 13.31-5.59L13.31-5.59L13.31-5.59Q13.71-3.75 14.17-1.84L14.17-1.84L14.17-1.84Q14.63 0.06 15.33 1.90L15.33 1.90L15.33 1.90Q16.02 3.75 17.23 5.19L17.23 5.19L17.23 5.19Q18.44 6.63 20.34 7.49L20.34 7.49L20.34 7.49Q22.24 8.35 25.12 8.35ZM105.50-39.87L82.74-26.45L82.74-26.45Q82.74-24.60 83.29-22.44L83.29-22.44L83.29-22.44Q83.83-20.28 84.87-18.09L84.87-18.09L84.87-18.09Q85.91-15.90 87.43-13.91L87.43-13.91L87.43-13.91Q88.96-11.93 90.95-10.37L90.95-10.37L90.95-10.37Q92.94-8.82 95.36-7.89L95.36-7.89L95.36-7.89Q97.78-6.97 100.66-6.97L100.66-6.97L100.66-6.97Q102.67-6.97 104.40-7.43L104.40-7.43L104.40-7.43Q106.13-7.89 107.63-8.70L107.63-8.70L107.63-8.70Q109.13-9.51 110.51-10.57L110.51-10.57L110.51-10.57Q111.89-11.64 113.28-12.85L113.28-12.85L114.72-11.47L114.72-11.47Q113.39-9.68 111.32-7.55L111.32-7.55L111.32-7.55Q109.24-5.42 106.30-3.54L106.30-3.54L106.30-3.54Q103.37-1.67 99.45-0.43L99.45-0.43L99.45-0.43Q95.53 0.81 90.52 0.81L90.52 0.81L90.52 0.81Q85.50 0.81 80.75-1.01L80.75-1.01L80.75-1.01Q76.00-2.82 72.31-6.45L72.31-6.45L72.31-6.45Q68.62-10.08 66.40-15.50L66.40-15.50L66.40-15.50Q64.19-20.92 64.19-28.17L64.19-28.17L64.19-28.17Q64.19-33.42 65.51-37.80L65.51-37.80L65.51-37.80Q66.84-42.18 69.11-45.69L69.11-45.69L69.11-45.69Q71.39-49.21 74.41-51.86L74.41-51.86L74.41-51.86Q77.44-54.51 80.78-56.26L80.78-56.26L80.78-56.26Q84.12-58.02 87.61-58.91L87.61-58.91L87.61-58.91Q91.09-59.81 94.32-59.81L94.32-59.81L94.32-59.81Q98.58-59.81 101.75-58.88L101.75-58.88L101.75-58.88Q104.92-57.96 107.02-56.41L107.02-56.41L107.02-56.41Q109.13-54.85 110.16-52.81L110.16-52.81L110.16-52.81Q111.20-50.76 111.20-48.51L111.20-48.51L111.20-48.51Q111.20-45.81 109.65-43.65L109.65-43.65L109.65-43.65Q108.09-41.48 105.50-39.87L105.50-39.87ZM82.16-31.17L94.32-38.14L94.32-38.14Q95.07-38.60 95.56-39.04L95.56-39.04L95.56-39.04Q96.05-39.47 96.34-40.07L96.34-40.07L96.34-40.07Q96.62-40.68 96.77-41.57L96.77-41.57L96.77-41.57Q96.91-42.46 96.91-43.79L96.91-43.79L96.91-43.79Q96.91-45.23 96.60-46.99L96.60-46.99L96.60-46.99Q96.28-48.74 95.53-50.30L95.53-50.30L95.53-50.30Q94.78-51.86 93.63-52.89L93.63-52.89L93.63-52.89Q92.48-53.93 90.86-53.93L90.86-53.93L90.86-53.93Q88.79-53.93 87.32-52.69L87.32-52.69L87.32-52.69Q85.85-51.45 84.90-49.49L84.90-49.49L84.90-49.49Q83.95-47.53 83.40-45.03L83.40-45.03L83.40-45.03Q82.85-42.52 82.57-39.99L82.57-39.99L82.57-39.99Q82.28-37.45 82.22-35.12L82.22-35.12L82.22-35.12Q82.16-32.78 82.16-31.17L82.16-31.17ZM140.87-47.65L140.87-47.65L140.87-47.65Q143.06-50.99 145.54-53.70L145.54-53.70L145.54-53.70Q146.58-54.85 147.79-55.95L147.79-55.95L147.79-55.95Q149.00-57.04 150.29-57.91L150.29-57.91L150.29-57.91Q151.59-58.77 152.97-59.29L152.97-59.29L152.97-59.29Q154.36-59.81 155.74-59.81L155.74-59.81L155.74-59.81Q158.68-59.81 160.35-58.05L160.35-58.05L160.35-58.05Q162.02-56.29 162.02-53.12L162.02-53.12L162.02-53.12Q162.02-51.16 161.70-49.35L161.70-49.35L161.70-49.35Q161.39-47.53 160.46-44.94L160.46-44.94L158.85-44.94L158.85-44.94Q158.50-46.73 157.24-47.91L157.24-47.91L157.24-47.91Q155.97-49.09 153.55-49.09L153.55-49.09L153.55-49.09Q151.76-49.09 150.04-48.43L150.04-48.43L150.04-48.43Q148.31-47.76 146.66-46.79L146.66-46.79L146.66-46.79Q145.02-45.81 143.55-44.65L143.55-44.65L143.55-44.65Q142.08-43.50 140.87-42.46L140.87-42.46L140.87-5.07L140.87-5.07Q140.87-4.32 140.64-3.28L140.64-3.28L140.64-3.28Q140.41-2.25 139.52-1.33L139.52-1.33L139.52-1.33Q138.63-0.40 136.87 0.26L136.87 0.26L136.87 0.26Q135.11 0.92 132.06 0.92L132.06 0.92L132.06 0.92Q129.00 0.92 127.25 0.20L127.25 0.20L127.25 0.20Q125.49-0.52 124.57-1.50L124.57-1.50L124.57-1.50Q123.65-2.48 123.42-3.51L123.42-3.51L123.42-3.51Q123.19-4.55 123.19-5.19L123.19-5.19L123.19-49.67L123.19-49.67Q123.19-51.34 122.41-52.58L122.41-52.58L122.41-52.58Q121.63-53.81 119.79-53.81L119.79-53.81L119.79-53.81Q118.81-53.81 118.12-53.47L118.12-53.47L118.12-53.47Q117.42-53.12 116.62-52.49L116.62-52.49L115.41-53.93L115.41-53.93Q116.73-55.02 118.37-56.09L118.37-56.09L118.37-56.09Q120.02-57.16 121.92-57.96L121.92-57.96L121.92-57.96Q123.82-58.77 126.01-59.29L126.01-59.29L126.01-59.29Q128.20-59.81 130.62-59.81L130.62-59.81L130.62-59.81Q133.10-59.81 134.85-59.14L134.85-59.14L134.85-59.14Q136.61-58.48 137.73-57.42L137.73-57.42L137.73-57.42Q138.86-56.35 139.49-55.02L139.49-55.02L139.49-55.02Q140.13-53.70 140.44-52.35L140.44-52.35L140.44-52.35Q140.76-50.99 140.82-49.75L140.82-49.75L140.82-49.75Q140.87-48.51 140.87-47.65ZM194.11-15.79L194.11-29.85L194.11-29.85Q194.11-31.29 193.19-32.04L193.19-32.04L193.19-32.04Q192.27-32.78 190.83-32.78L190.83-32.78L190.83-32.78Q188.81-32.78 187.00-31.86L187.00-31.86L187.00-31.86Q185.18-30.94 183.80-29.15L183.80-29.15L183.80-29.15Q182.42-27.37 181.61-24.75L181.61-24.75L181.61-24.75Q180.80-22.13 180.80-18.67L180.80-18.67L180.80-18.67Q180.80-15.33 181.29-13.14L181.29-13.14L181.29-13.14Q181.78-10.95 182.62-9.65L182.62-9.65L182.62-9.65Q183.45-8.35 184.55-7.84L184.55-7.84L184.55-7.84Q185.64-7.32 186.85-7.32L186.85-7.32L186.85-7.32Q188.35-7.32 189.68-8.10L189.68-8.10L189.68-8.10Q191.00-8.87 191.98-10.08L191.98-10.08L191.98-10.08Q192.96-11.29 193.54-12.79L193.54-12.79L193.54-12.79Q194.11-14.29 194.11-15.79L194.11-15.79ZM184.95-55.08L184.95-55.08L184.95-55.08Q182.99-55.08 181.32-54.62L181.32-54.62L181.32-54.62Q179.65-54.16 178.44-53.47L178.44-53.47L178.44-53.47Q177.23-52.78 176.54-51.94L176.54-51.94L176.54-51.94Q175.85-51.11 175.85-50.36L175.85-50.36L175.85-50.36Q175.85-49.49 176.74-49.12L176.74-49.12L176.74-49.12Q177.63-48.74 178.73-48.25L178.73-48.25L178.73-48.25Q179.82-47.76 180.72-46.87L180.72-46.87L180.72-46.87Q181.61-45.98 181.61-44.13L181.61-44.13L181.61-44.13Q181.61-42.92 181.12-41.92L181.12-41.92L181.12-41.92Q180.63-40.91 179.79-40.13L179.79-40.13L179.79-40.13Q178.96-39.35 177.84-38.92L177.84-38.92L177.84-38.92Q176.71-38.49 175.50-38.49L175.50-38.49L175.50-38.49Q172.28-38.49 170.29-40.68L170.29-40.68L170.29-40.68Q168.30-42.87 168.30-46.50L168.30-46.50L168.30-46.50Q168.30-50.01 170.14-52.52L170.14-52.52L170.14-52.52Q171.99-55.02 174.95-56.64L174.95-56.64L174.95-56.64Q177.92-58.25 181.67-59.03L181.67-59.03L181.67-59.03Q185.41-59.81 189.16-59.81L189.16-59.81L189.16-59.81Q193.65-59.81 197.74-58.83L197.74-58.83L197.74-58.83Q201.83-57.85 204.97-55.72L204.97-55.72L204.97-55.72Q208.11-53.58 209.99-50.30L209.99-50.30L209.99-50.30Q211.86-47.02 211.86-42.35L211.86-42.35L211.86-9.79L211.86-9.79Q211.86-9.28 211.92-8.64L211.92-8.64L211.92-8.64Q211.97-8.01 212.20-7.49L212.20-7.49L212.20-7.49Q212.43-6.97 212.90-6.63L212.90-6.63L212.90-6.63Q213.36-6.28 214.22-6.28L214.22-6.28L214.22-6.28Q215.26-6.28 216.15-7.06L216.15-7.06L216.15-7.06Q217.04-7.84 217.74-8.64L217.74-8.64L219.18-7.43L219.18-7.43Q218.31-6.22 217.10-4.78L217.10-4.78L217.10-4.78Q215.89-3.34 214.16-2.07L214.16-2.07L214.16-2.07Q212.43-0.81 210.13 0.06L210.13 0.06L210.13 0.06Q207.83 0.92 204.89 0.92L204.89 0.92L204.89 0.92Q201.26 0.92 198.43-1.24L198.43-1.24L198.43-1.24Q195.61-3.40 194.75-7.89L194.75-7.89L194.75-7.89Q192.90-5.42 190.91-3.75L190.91-3.75L190.91-3.75Q188.93-2.07 186.85-1.04L186.85-1.04L186.85-1.04Q184.78 0 182.68 0.46L182.68 0.46L182.68 0.46Q180.57 0.92 178.44 0.92L178.44 0.92L178.44 0.92Q175.67 0.92 173.08 0.06L173.08 0.06L173.08 0.06Q170.49-0.81 168.44-2.68L168.44-2.68L168.44-2.68Q166.40-4.55 165.16-7.55L165.16-7.55L165.16-7.55Q163.92-10.54 163.92-14.87L163.92-14.87L163.92-14.87Q163.92-20.11 166.00-23.45L166.00-23.45L166.00-23.45Q168.07-26.79 171.44-29.07L171.44-29.07L171.44-29.07Q174.81-31.34 179.10-32.96L179.10-32.96L179.10-32.96Q183.40-34.57 187.89-36.36L187.89-36.36L187.89-36.36Q191.23-37.68 192.76-40.30L192.76-40.30L192.76-40.30Q194.29-42.92 194.29-45.69L194.29-45.69L194.29-45.69Q194.29-49.95 191.78-52.52L191.78-52.52L191.78-52.52Q189.27-55.08 184.95-55.08ZM255.36-85.68L255.36-85.68L255.36-85.68Q253.75-85.68 252.31-84.99L252.31-84.99L252.31-84.99Q250.87-84.29 249.80-82.77L249.80-82.77L249.80-82.77Q248.73-81.24 248.10-78.88L248.10-78.88L248.10-78.88Q247.47-76.52 247.47-73.17L247.47-73.17L247.47-59L260.08-59L260.08-54.85L247.47-54.85L247.47-9.45L247.47-9.45Q247.47-1.61 245.42 5.01L245.42 5.01L245.42 5.01Q243.38 11.64 239.23 16.45L239.23 16.45L239.23 16.45Q235.08 21.26 228.86 23.97L228.86 23.97L228.86 23.97Q222.63 26.68 214.34 26.68L214.34 26.68L214.34 26.68Q211.40 26.68 208.69 26.19L208.69 26.19L208.69 26.19Q205.98 25.70 203.91 24.83L203.91 24.83L203.91 24.83Q201.83 23.97 200.59 22.79L200.59 22.79L200.59 22.79Q199.36 21.61 199.36 20.17L199.36 20.17L199.36 20.17Q199.36 19.13 199.64 18.06L199.64 18.06L199.64 18.06Q199.93 17.00 200.51 16.13L200.51 16.13L200.51 16.13Q201.08 15.27 201.92 14.72L201.92 14.72L201.92 14.72Q202.75 14.17 203.85 14.17L203.85 14.17L203.85 14.17Q204.48 14.17 204.97 14.81L204.97 14.81L204.97 14.81Q205.46 15.44 205.98 16.36L205.98 16.36L205.98 16.36Q206.50 17.29 207.16 18.41L207.16 18.41L207.16 18.41Q207.83 19.53 208.86 20.45L208.86 20.45L208.86 20.45Q209.90 21.38 211.43 22.01L211.43 22.01L211.43 22.01Q212.95 22.64 215.14 22.64L215.14 22.64L215.14 22.64Q218.08 22.64 220.33 21.46L220.33 21.46L220.33 21.46Q222.58 20.28 224.19 18.21L224.19 18.21L224.19 18.21Q225.80 16.13 226.90 13.31L226.90 13.31L226.90 13.31Q227.99 10.49 228.63 7.26L228.63 7.26L228.63 7.26Q229.26 4.03 229.52 0.52L229.52 0.52L229.52 0.52Q229.78-3.00 229.78-6.51L229.78-6.51L229.78-54.85L219.18-54.85L219.18-59L229.78-59L229.78-65.74L229.78-65.74Q229.78-70.81 231.02-74.59L231.02-74.59L231.02-74.59Q232.25-78.36 234.30-81.01L234.30-81.01L234.30-81.01Q236.35-83.66 238.94-85.33L238.94-85.33L238.94-85.33Q241.53-87.00 244.21-87.98L244.21-87.98L244.21-87.98Q246.89-88.96 249.42-89.31L249.42-89.31L249.42-89.31Q251.96-89.65 253.86-89.65L253.86-89.65L253.86-89.65Q257.95-89.65 261.12-89.05L261.12-89.05L261.12-89.05Q264.29-88.44 266.42-87.43L266.42-87.43L266.42-87.43Q268.55-86.43 269.65-85.10L269.65-85.10L269.65-85.10Q270.74-83.78 270.74-82.39L270.74-82.39L270.74-82.39Q270.74-81.36 270.43-80.29L270.43-80.29L270.43-80.29Q270.11-79.22 269.53-78.33L269.53-78.33L269.53-78.33Q268.96-77.44 268.12-76.89L268.12-76.89L268.12-76.89Q267.29-76.34 266.25-76.34L266.25-76.34L266.25-76.34Q265.62-76.34 265.10-77.03L265.10-77.03L265.10-77.03Q264.58-77.73 264.00-78.76L264.00-78.76L264.00-78.76Q263.43-79.80 262.73-81.01L262.73-81.01L262.73-81.01Q262.04-82.22 261.03-83.26L261.03-83.26L261.03-83.26Q260.03-84.29 258.64-84.99L258.64-84.99L258.64-84.99Q257.26-85.68 255.36-85.68ZM301.80-39.87L279.04-26.45L279.04-26.45Q279.04-24.60 279.59-22.44L279.59-22.44L279.59-22.44Q280.13-20.28 281.17-18.09L281.17-18.09L281.17-18.09Q282.21-15.90 283.74-13.91L283.74-13.91L283.74-13.91Q285.26-11.93 287.25-10.37L287.25-10.37L287.25-10.37Q289.24-8.82 291.66-7.89L291.66-7.89L291.66-7.89Q294.08-6.97 296.96-6.97L296.96-6.97L296.96-6.97Q298.98-6.97 300.70-7.43L300.70-7.43L300.70-7.43Q302.43-7.89 303.93-8.70L303.93-8.70L303.93-8.70Q305.43-9.51 306.81-10.57L306.81-10.57L306.81-10.57Q308.19-11.64 309.58-12.85L309.58-12.85L311.02-11.47L311.02-11.47Q309.69-9.68 307.62-7.55L307.62-7.55L307.62-7.55Q305.54-5.42 302.61-3.54L302.61-3.54L302.61-3.54Q299.67-1.67 295.75-0.43L295.75-0.43L295.75-0.43Q291.83 0.81 286.82 0.81L286.82 0.81L286.82 0.81Q281.81 0.81 277.05-1.01L277.05-1.01L277.05-1.01Q272.30-2.82 268.61-6.45L268.61-6.45L268.61-6.45Q264.92-10.08 262.71-15.50L262.71-15.50L262.71-15.50Q260.49-20.92 260.49-28.17L260.49-28.17L260.49-28.17Q260.49-33.42 261.81-37.80L261.81-37.80L261.81-37.80Q263.14-42.18 265.41-45.69L265.41-45.69L265.41-45.69Q267.69-49.21 270.71-51.86L270.71-51.86L270.71-51.86Q273.74-54.51 277.08-56.26L277.08-56.26L277.08-56.26Q280.42-58.02 283.91-58.91L283.91-58.91L283.91-58.91Q287.39-59.81 290.62-59.81L290.62-59.81L290.62-59.81Q294.88-59.81 298.05-58.88L298.05-58.88L298.05-58.88Q301.22-57.96 303.33-56.41L303.33-56.41L303.33-56.41Q305.43-54.85 306.47-52.81L306.47-52.81L306.47-52.81Q307.50-50.76 307.50-48.51L307.50-48.51L307.50-48.51Q307.50-45.81 305.95-43.65L305.95-43.65L305.95-43.65Q304.39-41.48 301.80-39.87L301.80-39.87ZM278.46-31.17L290.62-38.14L290.62-38.14Q291.37-38.60 291.86-39.04L291.86-39.04L291.86-39.04Q292.35-39.47 292.64-40.07L292.64-40.07L292.64-40.07Q292.93-40.68 293.07-41.57L293.07-41.57L293.07-41.57Q293.21-42.46 293.21-43.79L293.21-43.79L293.21-43.79Q293.21-45.23 292.90-46.99L292.90-46.99L292.90-46.99Q292.58-48.74 291.83-50.30L291.83-50.30L291.83-50.30Q291.08-51.86 289.93-52.89L289.93-52.89L289.93-52.89Q288.78-53.93 287.16-53.93L287.16-53.93L287.16-53.93Q285.09-53.93 283.62-52.69L283.62-52.69L283.62-52.69Q282.15-51.45 281.20-49.49L281.20-49.49L281.20-49.49Q280.25-47.53 279.70-45.03L279.70-45.03L279.70-45.03Q279.16-42.52 278.87-39.99L278.87-39.99L278.87-39.99Q278.58-37.45 278.52-35.12L278.52-35.12L278.52-35.12Q278.46-32.78 278.46-31.17L278.46-31.17ZM337.18-50.24L337.18-5.19L337.18-5.19Q337.18-4.44 336.92-3.37L336.92-3.37L336.92-3.37Q336.66-2.30 335.71-1.35L335.71-1.35L335.71-1.35Q334.76-0.40 332.97 0.26L332.97 0.26L332.97 0.26Q331.18 0.92 328.13 0.92L328.13 0.92L328.13 0.92Q325.08 0.92 323.35 0.20L323.35 0.20L323.35 0.20Q321.62-0.52 320.75-1.50L320.75-1.50L320.75-1.50Q319.89-2.48 319.69-3.51L319.69-3.51L319.69-3.51Q319.49-4.55 319.49-5.19L319.49-5.19L319.49-49.67L319.49-49.67Q319.49-51.34 318.71-52.58L318.71-52.58L318.71-52.58Q317.93-53.81 316.09-53.81L316.09-53.81L316.09-53.81Q315.11-53.81 314.42-53.47L314.42-53.47L314.42-53.47Q313.73-53.12 312.92-52.49L312.92-52.49L311.71-53.93L311.71-53.93Q313.03-55.02 314.68-56.09L314.68-56.09L314.68-56.09Q316.32-57.16 318.22-57.96L318.22-57.96L318.22-57.96Q320.12-58.77 322.31-59.29L322.31-59.29L322.31-59.29Q324.50-59.81 326.92-59.81L326.92-59.81L326.92-59.81Q330.67-59.81 332.74-58.80L332.74-58.80L332.74-58.80Q334.81-57.79 335.79-56.32L335.79-56.32L335.79-56.32Q336.77-54.85 336.97-53.18L336.97-53.18L336.97-53.18Q337.18-51.51 337.18-50.24L337.18-50.24ZM317.70-72.94L317.70-72.94L317.70-72.94Q317.70-74.56 318.42-76.03L318.42-76.03L318.42-76.03Q319.14-77.50 320.44-78.59L320.44-78.59L320.44-78.59Q321.73-79.68 323.43-80.32L323.43-80.32L323.43-80.32Q325.13-80.95 327.15-80.95L327.15-80.95L327.15-80.95Q329.11-80.95 330.81-80.32L330.81-80.32L330.81-80.32Q332.51-79.68 333.78-78.59L333.78-78.59L333.78-78.59Q335.04-77.50 335.76-76.03L335.76-76.03L335.76-76.03Q336.48-74.56 336.48-72.94L336.48-72.94L336.48-72.94Q336.48-71.27 335.76-69.83L335.76-69.83L335.76-69.83Q335.04-68.39 333.78-67.33L333.78-67.33L333.78-67.33Q332.51-66.26 330.81-65.63L330.81-65.63L330.81-65.63Q329.11-64.99 327.15-64.99L327.15-64.99L327.15-64.99Q325.13-64.99 323.43-65.63L323.43-65.63L323.43-65.63Q321.73-66.26 320.44-67.33L320.44-67.33L320.44-67.33Q319.14-68.39 318.42-69.83L318.42-69.83L318.42-69.83Q317.70-71.27 317.70-72.94ZM400.90-43.67L400.90-5.07L400.90-5.07Q400.90-4.32 400.67-3.28L400.67-3.28L400.67-3.28Q400.44-2.25 399.55-1.33L399.55-1.33L399.55-1.33Q398.65-0.40 396.87 0.26L396.87 0.26L396.87 0.26Q395.08 0.92 392.03 0.92L392.03 0.92L392.03 0.92Q388.97 0.92 387.22 0.20L387.22 0.20L387.22 0.20Q385.46-0.52 384.57-1.50L384.57-1.50L384.57-1.50Q383.67-2.48 383.44-3.51L383.44-3.51L383.44-3.51Q383.21-4.55 383.21-5.19L383.21-5.19L383.21-45.92L383.21-45.92Q383.21-46.73 382.98-47.56L382.98-47.56L382.98-47.56Q382.75-48.40 382.29-49.09L382.29-49.09L382.29-49.09Q381.83-49.78 381.14-50.21L381.14-50.21L381.14-50.21Q380.45-50.65 379.52-50.65L379.52-50.65L379.52-50.65Q377.97-50.65 376.47-49.75L376.47-49.75L376.47-49.75Q374.97-48.86 373.68-47.71L373.68-47.71L373.68-47.71Q372.38-46.55 371.43-45.40L371.43-45.40L371.43-45.40Q370.48-44.25 370.08-43.67L370.08-43.67L370.08-5.07L370.08-5.07Q370.08-4.32 369.84-3.28L369.84-3.28L369.84-3.28Q369.61-2.25 368.72-1.33L368.72-1.33L368.72-1.33Q367.83-0.40 366.07 0.26L366.07 0.26L366.07 0.26Q364.31 0.92 361.26 0.92L361.26 0.92L361.26 0.92Q358.21 0.92 356.45 0.20L356.45 0.20L356.45 0.20Q354.69-0.52 353.77-1.50L353.77-1.50L353.77-1.50Q352.85-2.48 352.62-3.51L352.62-3.51L352.62-3.51Q352.39-4.55 352.39-5.19L352.39-5.19L352.39-49.67L352.39-49.67Q352.39-51.34 351.61-52.58L351.61-52.58L351.61-52.58Q350.83-53.81 348.99-53.81L348.99-53.81L348.99-53.81Q348.01-53.81 347.32-53.47L347.32-53.47L347.32-53.47Q346.63-53.12 345.82-52.49L345.82-52.49L344.61-53.93L344.61-53.93Q345.93-55.02 347.58-56.09L347.58-56.09L347.58-56.09Q349.22-57.16 351.12-57.96L351.12-57.96L351.12-57.96Q353.02-58.77 355.21-59.29L355.21-59.29L355.21-59.29Q357.40-59.81 359.82-59.81L359.82-59.81L359.82-59.81Q363.56-59.81 365.64-58.57L365.64-58.57L365.64-58.57Q367.71-57.33 368.69-55.60L368.69-55.60L368.69-55.60Q369.67-53.87 369.87-52.00L369.87-52.00L369.87-52.00Q370.08-50.13 370.08-48.86L370.08-48.86L370.08-48.86Q372.78-51.91 375.89-54.33L375.89-54.33L375.89-54.33Q377.16-55.37 378.69-56.35L378.69-56.35L378.69-56.35Q380.22-57.33 381.83-58.11L381.83-58.11L381.83-58.11Q383.44-58.88 385.17-59.35L385.17-59.35L385.17-59.35Q386.90-59.81 388.63-59.81L388.63-59.81L388.63-59.81Q391.97-59.81 394.33-58.60L394.33-58.60L394.33-58.60Q396.69-57.39 398.13-55.69L398.13-55.69L398.13-55.69Q399.58-53.99 400.24-52.11L400.24-52.11L400.24-52.11Q400.90-50.24 400.90-48.86L400.90-48.86L400.90-48.86Q403.67-51.91 406.72-54.33L406.72-54.33L406.72-54.33Q407.99-55.37 409.49-56.35L409.49-56.35L409.49-56.35Q410.98-57.33 412.63-58.11L412.63-58.11L412.63-58.11Q414.27-58.88 415.97-59.35L415.97-59.35L415.97-59.35Q417.67-59.81 419.40-59.81L419.40-59.81L419.40-59.81Q422.74-59.81 425.10-58.57L425.10-58.57L425.10-58.57Q427.46-57.33 428.90-55.31L428.90-55.31L428.90-55.31Q430.34-53.30 431.01-50.76L431.01-50.76L431.01-50.76Q431.67-48.23 431.67-45.69L431.67-45.69L431.67-10.03L431.67-10.03Q431.67-9.51 431.73-8.90L431.73-8.90L431.73-8.90Q431.78-8.30 432.01-7.75L432.01-7.75L432.01-7.75Q432.24-7.20 432.73-6.86L432.73-6.86L432.73-6.86Q433.22-6.51 434.03-6.51L434.03-6.51L434.03-6.51Q435.13-6.51 435.99-7.29L435.99-7.29L435.99-7.29Q436.85-8.07 437.60-8.87L437.60-8.87L438.99-7.66L438.99-7.66Q438.18-6.45 436.85-4.98L436.85-4.98L436.85-4.98Q435.53-3.51 433.71-2.19L433.71-2.19L433.71-2.19Q431.90-0.86 429.51 0.03L429.51 0.03L429.51 0.03Q427.12 0.92 424.12 0.92L424.12 0.92L424.12 0.92Q421.58 0.92 419.71 0.26L419.71 0.26L419.71 0.26Q417.84-0.40 416.54-1.53L416.54-1.53L416.54-1.53Q415.25-2.65 414.61-4.18L414.61-4.18L414.61-4.18Q413.98-5.70 413.98-7.43L413.98-7.43L413.98-45.92L413.98-45.92Q413.98-46.73 413.75-47.56L413.75-47.56L413.75-47.56Q413.52-48.40 413.09-49.09L413.09-49.09L413.09-49.09Q412.65-49.78 411.96-50.21L411.96-50.21L411.96-50.21Q411.27-50.65 410.35-50.65L410.35-50.65L410.35-50.65Q408.79-50.65 407.27-49.75L407.27-49.75L407.27-49.75Q405.74-48.86 404.44-47.71L404.44-47.71L404.44-47.71Q403.15-46.55 402.23-45.40L402.23-45.40L402.23-45.40Q401.30-44.25 400.90-43.67L400.90-43.67Z" fill="#f4e318"></path></g></g><style>text {
  font-size: 64px;
  font-family: Arial Black;
  dominant-baseline: central;
  text-anchor: middle;
}</style></svg>